<?xml version="1.0" standalone="no"?>
<!DOCTYPE svg PUBLIC "-//W3C//DTD SVG 20010904//EN"
 "http://www.w3.org/TR/2001/REC-SVG-20010904/DTD/svg10.dtd">
<svg version="1.0" xmlns="http://www.w3.org/2000/svg"
 width="154.000000pt" height="154.000000pt" viewBox="0 0 154.000000 154.000000"
 preserveAspectRatio="xMidYMid meet">
<metadata>
Created by potrace 1.11, written by Peter Selinger 2001-2013
</metadata>
<g transform="translate(0.000000,154.000000) scale(0.100000,-0.100000)"
fill="#000000" stroke="none">
<path d="M813 1475 c-12 -8 -27 -31 -33 -50 -13 -41 -39 -58 -94 -62 -21 -2
-45 -8 -54 -15 -9 -8 -53 -13 -117 -14 -121 -2 -142 -7 -146 -37 -3 -18 -3
-1042 0 -1158 1 -27 6 -38 24 -45 12 -5 216 -9 470 -9 408 1 449 3 464 18 16
16 18 64 18 600 0 320 -1 590 -3 600 -6 23 -33 29 -151 31 -58 1 -105 7 -113
14 -8 6 -36 13 -63 16 -52 5 -85 30 -85 66 0 23 -46 60 -74 60 -12 0 -31 -7
-43 -15z"/>
<path d="M225 1129 c-9 -14 3 -59 16 -59 6 0 -8 -23 -30 -51 -39 -49 -53 -77
-31 -64 6 3 10 0 10 -9 0 -8 -5 -16 -11 -18 -7 -2 -5 -9 5 -17 14 -12 16 -12
11 2 -4 8 -2 17 3 21 5 3 9 -17 9 -44 1 -28 -3 -48 -7 -45 -4 3 -14 -3 -21
-13 -13 -15 -12 -16 4 -3 9 7 17 12 18 10 0 -2 3 -13 6 -24 3 -11 6 -99 8
-195 3 -219 1 -203 25 -217 38 -25 44 11 45 312 1 283 -5 341 -32 331 -9 -4
-7 4 7 24 13 19 19 37 15 50 -7 21 -39 27 -50 9z"/>
<path d="M179 888 c-6 -21 -5 -37 2 -32 5 3 7 9 4 14 -3 4 1 11 7 13 10 4 10
6 1 6 -7 1 -13 0 -14 -1z"/>
<path d="M229 373 c0 -5 -2 -15 -3 -23 -2 -8 0 -25 5 -38 8 -22 10 -22 26 -7
19 20 25 57 9 67 -14 10 -36 10 -37 1z"/>
<path d="M60 16 c0 -13 13 -16 67 -16 76 0 81 9 7 13 -27 1 -55 6 -61 10 -9 5
-13 3 -13 -7z"/>
<path d="M1462 22 c-7 -5 -42 -9 -79 -10 -98 -2 -90 -12 10 -12 71 0 87 3 87
15 0 17 -1 17 -18 7z"/>
</g>
</svg>
